<?xml version="1.0"?><svg width="640" height="480" xmlns="http://www.w3.org/2000/svg">
 <title>Sheep with a colored face</title>
 <defs>
  <linearGradient id="svg_2" x1="0" y1="0" x2="1" y2="0">
   <stop stop-color="#f2cfae" stop-opacity="0.996094" offset="0"/>
   <stop stop-color="#efb681" stop-opacity="0.988281" offset="0.984375"/>
  </linearGradient>
 </defs>
 <metadata id="metadata7">image/svg+xml</metadata>
 <g>
  <title>Layer 1</title>
  <rect transform="matrix(0.924795, 0, 0, 0.924795, -81.1683, -78.7979)" fill="#000000" fill-rule="evenodd" stroke-width="0.5" stroke-linecap="round" stroke-linejoin="round" stroke-miterlimit="4" stroke-dashoffset="0" y="460.30414" x="440.75931" height="100.82373" width="24.80584" id="rect2323"/>
  <rect transform="matrix(0.924795, 0, 0, 0.924795, -81.1683, -78.7979)" fill="#000000" fill-rule="evenodd" stroke-width="0.5" stroke-linecap="round" stroke-linejoin="round" stroke-miterlimit="4" stroke-dashoffset="0" id="rect2325" width="24.80584" height="100.82373" x="488.77057" y="479.50854"/>
  <path fill="#000000" fill-rule="evenodd" stroke-width="0.5" stroke-linecap="round" stroke-linejoin="round" marker-start="none" marker-mid="none" marker-end="none" stroke-miterlimit="4" stroke-dashoffset="0" d="m335.306488,414.447021c-14.501251,0 -23.180206,1.521973 -26.258331,23.940277c-1.351013,9.839844 1.366882,15.886017 5.903625,19.44928c0.913574,-4.10141 3.278748,-12.941284 4.853241,-15.755005c1.468811,10.688477 -1.493439,12.897522 0.036224,18.435181c5.373779,1.894104 11.857239,1.788574 17.783173,0.289734c15.273926,-3.863342 23.940338,-1.413971 23.940338,-22.419189c0,-20.962463 -11.75705,-23.940247 -26.25827,-23.940277z" id="path2327"/>
  <path fill="#000000" fill-rule="evenodd" stroke-width="0.5" stroke-linecap="round" stroke-linejoin="round" marker-start="none" marker-mid="none" marker-end="none" stroke-miterlimit="4" stroke-dashoffset="0" id="path2329" d="m377.864929,434.427307c-15.009705,0 -23.99295,1.575317 -27.178986,24.779694c-1.398376,10.184814 1.414764,16.442993 6.110596,20.131165c0.945587,-4.245239 3.393738,-13.39502 5.023407,-16.307373c1.520294,11.063232 -1.545837,13.349701 0.037476,19.081543c5.562225,1.960541 12.273041,1.851257 18.406738,0.299866c15.809448,-3.998779 24.779694,-1.463501 24.779694,-23.2052c0,-21.69751 -12.169281,-24.779694 -27.178925,-24.779694z"/>
  <rect transform="matrix(0.924795, 0, 0, 0.924795, -81.1683, -78.7979)" fill="#000000" fill-rule="evenodd" stroke-width="0.5" stroke-linecap="round" stroke-linejoin="round" stroke-miterlimit="4" stroke-dashoffset="0" id="rect2291" width="24.80584" height="100.82373" x="255.31567" y="460.30414"/>
  <rect transform="matrix(0.924795, 0, 0, 0.924795, -81.1683, -78.7979)" fill="#000000" fill-rule="evenodd" stroke-width="0.5" stroke-linecap="round" stroke-linejoin="round" stroke-miterlimit="4" stroke-dashoffset="0" y="479.50854" x="303.32697" height="100.82373" width="24.80584" id="rect2293"/>
  <path fill="#000000" fill-rule="evenodd" stroke-width="0.5" stroke-linecap="round" stroke-linejoin="round" marker-start="none" marker-mid="none" marker-end="none" stroke-miterlimit="4" stroke-dashoffset="0" id="path2315" d="m163.809128,414.447021c-14.501251,0 -23.180222,1.521973 -26.258316,23.940277c-1.351013,9.839844 1.366837,15.886017 5.903595,19.44928c0.913589,-4.10141 3.278763,-12.941284 4.853256,-15.755005c1.468796,10.688477 -1.493454,12.897522 0.036224,18.435181c5.373764,1.894104 11.857269,1.788574 17.783173,0.289734c15.273911,-3.863342 23.940338,-1.413971 23.940338,-22.419189c0,-20.962463 -11.75708,-23.940247 -26.25827,-23.940277z"/>
  <path fill="#000000" fill-rule="evenodd" stroke-width="0.5" stroke-linecap="round" stroke-linejoin="round" marker-start="none" marker-mid="none" marker-end="none" stroke-miterlimit="4" stroke-dashoffset="0" d="m206.367523,434.427307c-15.009659,0 -23.992935,1.575317 -27.17894,24.779694c-1.398392,10.184814 1.414764,16.442993 6.110596,20.131165c0.945618,-4.245239 3.393723,-13.39502 5.023407,-16.307373c1.520294,11.063232 -1.545837,13.349701 0.037476,19.081543c5.56221,1.960541 12.27301,1.851257 18.406723,0.299866c15.809418,-3.998779 24.779694,-1.463501 24.779694,-23.2052c0,-21.69751 -12.169266,-24.779694 -27.178955,-24.779694z" id="path2299"/>
  <path fill="#000000" fill-rule="evenodd" stroke-width="1.43353" stroke-linecap="round" stroke-linejoin="round" marker-start="none" marker-mid="none" marker-end="none" stroke-miterlimit="4" stroke-dashoffset="0" d="m191.732925,9.95352c-5.648376,3.39369 -11.611649,6.042521 -18.248428,6.128561c-8.204666,1.84729 -15.297714,9.01824 -16.200195,17.511509c-11.999756,1.16626 -20.651794,15.003212 -17.022003,26.356659c-32.430931,8.864204 -58.914307,31.206451 -81.52523,55.201569c-21.777809,20.752647 -33.987349,51.401405 -30.799978,81.474007c3.123871,39.049667 30.929522,74.066132 66.807959,88.829895c-2.374641,5.379395 -1.86869,12.264587 1.907379,16.877502c-6.806419,7.299622 -5.268959,20.618317 3.381279,25.807556c-2.654579,8.75647 0.451195,19.193512 9.161263,23.119873c2.621872,6.436523 8.133781,11.38385 10.927711,17.774475c3.010071,3.78064 7.361069,6.796234 12.278854,7.195007c3.001678,7.833221 12.534103,12.070587 20.48999,10.028229c3.700928,9.609985 16.925949,14.134125 25.57637,8.323181c9.404602,1.413757 18.331726,5.578339 27.76561,6.272156c4.566879,-1.055908 9.552292,-3.320557 13.533615,0.375122c6.665955,4.618164 15.638626,2.824799 21.542007,-1.876343c5.807404,-2.183441 10.745834,1.939972 15.932053,3.171478c11.463776,1.193817 23.096069,2.362854 34.50943,0.76236c5.520599,1.159607 10.998962,0.17984 15.523895,-3.213806c4.876892,-2.671326 9.274292,0.035095 13.351715,2.600983c5.981262,2.152466 13.271271,1.258606 17.975708,-3.207886c5.160583,0.111023 10.127808,-2.608032 14.161102,2.011627c7.43277,3.282562 17.338837,1.089111 21.963684,-5.797516c7.356354,4.940186 18.017975,3.787964 23.638489,-3.167145c5.23642,-2.262024 11.250061,-3.260284 14.75885,-8.308472c5.567017,-5.296631 15.508331,-3.529236 18.931488,-11.41922c3.217865,-4.428558 10.327301,-4.029694 12.886688,-9.522583c3.680084,-4.272949 3.56189,-10.354584 3.680267,-15.329041c1.846832,-4.849335 5.27948,-7.795044 9.653687,-10.139923c5.52066,-5.401489 7.855225,-14.757751 3.352356,-21.472595c2.984039,-7.006836 11.381256,-13.34021 7.489929,-21.840546c-2.865051,-8.409393 -0.87088,-18.297119 -5.987122,-25.930878c4.980072,-6.621124 5.049347,-15.763123 -0.068909,-22.306503c-0.905518,-8.902618 -5.060028,-17.724182 -11.722229,-24.019943c0.782166,-7.719788 -1.492859,-16.320541 -9.164185,-19.732834c-5.427917,-2.288574 -3.79538,-9.812805 -8.956024,-12.923996c-5.969116,-4.10553 -11.181122,-9.052475 -16.306,-14.131149c-4.10791,-8.425507 -15.244507,-10.387115 -23.257874,-6.850128c-3.707214,-6.291061 -10.409241,-10.610992 -17.744507,-10.230545c-5.033325,-4.042755 -9.392975,-9.950226 -16.704102,-9.305756c-4.418182,-1.455902 -9.352966,4.315964 -12.22464,2.138596c-5.354492,-5.184341 -13.912872,-6.640076 -20.634491,-3.381287c-4.294128,-1.437027 -8.150726,-4.824997 -12.918243,-4.132675c-2.877014,-4.545731 -3.628357,-10.312897 -7.369446,-14.507721c-0.779297,-5.272415 6.084106,-8.164322 5.56015,-13.822998c2.286072,-4.793106 -3.613098,-11.019287 1.953796,-13.83416c8.062531,-10.009514 3.966125,-28.056709 -9.045654,-31.471924c-3.640503,-4.624954 -5.717621,-11.352394 -11.822571,-13.089005c-2.81424,-5.999599 -4.248566,-13.21093 -10.807068,-16.463528c-4.804443,-3.772881 -12.441833,-1.739029 -15.691528,-7.583771c-3.847321,-2.9244 -8.428955,-5.029131 -13.32283,-5.144171c-4.125717,-9.31262 -15.626953,-14.273 -25.345169,-11.675539c-5.778244,-4.91915 -14.033249,-6.59094 -21.270279,-4.30607c-4.487442,-2.20792 -9.688736,-2.18896 -14.536621,-1.82069z" id="path2224"/>
  <path fill="#ffffff" fill-rule="evenodd" stroke-width="1.27546" stroke-linecap="round" stroke-linejoin="round" marker-start="none" marker-mid="none" marker-end="none" stroke-miterlimit="4" stroke-dashoffset="0" d="m99.364357,87.999168c34.488731,-22.458138 57.591133,-31.926208 73.930992,-6.833229c11.496445,17.654984 -9.845154,47.71962 -44.333893,70.17778c-34.488693,22.458115 -65.029175,36.769653 -76.525597,19.1147c-11.496418,-17.654953 12.439774,-60.001106 46.928497,-82.459251z" id="path2051"/>
  <path fill="#000000" fill-rule="evenodd" stroke-width="1.43353" stroke-linecap="round" stroke-linejoin="round" marker-start="none" marker-mid="none" marker-end="none" stroke-miterlimit="4" stroke-dashoffset="0" id="path2126" d="m310.106689,147.979172c-6.057098,0.083221 -6.437836,9.922333 -12.801422,7.582336c-26.10199,-0.814102 -52.274124,-3.981903 -78.367523,-2.186554c-44.097961,5.36322 -81.568039,38.016754 -98.779785,78.125275c-6.535683,14.693054 -10.474586,30.463547 -11.974487,46.470444c-11.118919,1.077942 -15.606194,17.747528 -6.560265,24.160248c-4.342606,4.337646 -7.661476,10.559631 -4.712814,16.683136c0.732124,4.2099 6.767036,6.645752 7.9496,8.662048c-5.078056,7.298248 -0.92337,19.259552 7.976357,21.039063c-0.198853,5.506714 5.012077,8.964661 7.683479,12.7052c1.058762,6.702118 7.678902,11.995514 14.453804,11.541779c1.715973,8.48465 12.779572,13.020905 20.172089,8.843353c1.497314,10.141113 14.72168,15.828186 22.686371,9.045654c6.399002,1.97525 13.113754,2.538696 19.4496,4.450562c5.15419,3.247406 11.207916,2.593994 16.217041,-0.400848c6.21875,0.695679 11.548706,7.810394 18.491013,5.250061c4.678055,-0.372833 6.750519,-6.840363 11.816971,-4.414124c5.256943,-1.4104 8.702377,0.58139 12.771317,3.400574c7.89389,0.969635 15.910828,0.494202 23.796082,1.745697c5.3013,0.700256 10.675812,-3.086945 16.005127,-0.379364c5.702393,0.562958 8.940277,-5.99762 14.594421,-4.566193c5.049622,-3.193726 6.98111,2.495209 11.32486,3.717407c5.295349,1.813538 11.858368,0.382416 15.378601,-4.122009c4.460388,3.017395 10.38089,-4.566681 13.004944,0.635803c6.868011,6.194794 19.77301,3.569366 22.715271,-5.346466c5.311249,3.3414 12.524994,7.033112 18.30069,2.604309c3.272858,-3.201599 6.080322,-6.515015 11.061554,-6.014496c6.705811,-2.02179 9.329773,-10.237762 16.885498,-10.310028c5.901123,-0.72113 9.693817,-5.063232 11.869843,-10.237762c9.123993,0.324005 16.330505,-10.63205 12.19574,-18.900482c4.537994,-1.915314 2.811462,-9.35022 7.311646,-9.681458c8.160187,-2.880859 12.623871,-14.373077 6.589172,-21.241394c0.336182,-5.298553 4.40744,-7.746094 7.063477,-11.643707c2.487183,-4.320923 2.016083,-10.155151 -1.023407,-14.106049c1.621643,-5.462524 -1.745117,-10.899475 -1.213806,-16.4729c-2.185547,-3.930359 -6.094421,-6.977753 -0.780304,-10.288361c3.212524,-5.505768 1.866821,-13.335434 -3.207886,-17.253189c2.221466,-6.945984 -3.303162,-13.421616 -6.415741,-19.160599c-4.707855,-2.322372 -5.747345,-6.096573 -4.219391,-10.750748c0.307129,-7.219025 -7.059631,-12.485779 -12.513641,-13.958618c0.547974,-6.548523 -4.295898,-13.195465 -10.779633,-14.449921c-1.859131,-5.997345 -9.890503,-6.822113 -11.583801,-13.042389c-4.791046,-6.511597 -14.342896,-6.429001 -20.580322,-2.701538c-3.680389,-3.562637 -5.328857,-10.188721 -11.718201,-10.322128c-4.772186,-0.006439 -9.554504,-0.722153 -11.441193,-5.663498c-5.52063,-6.008728 -16.472717,-5.762283 -21.434448,0.691116c-3.597107,-4.338562 -7.731781,-8.771896 -13.958649,-8.14975c-5.547119,0.79512 -8.79834,4.755539 -12.994385,-0.523895c-3.199341,-1.915161 -7.167053,-1.84523 -10.703461,-1.065598zm4.31192,2.967361c-5.297791,0 -9.50943,3.787216 -10.380402,8.66333l-71.257782,-3.512161c-65.941498,0 -117.254349,59.645813 -121.286499,125.188919c-0.191399,-0.009827 -0.352394,-0.078064 -0.546326,-0.078064c-5.923058,0 -10.770622,4.661591 -10.770622,10.380371c0,3.893829 2.327454,7.127625 5.619453,8.897491c-0.16539,0.722443 -0.468285,1.41507 -0.468285,2.185303c0,0.633148 0.277435,1.193268 0.390244,1.795135c-3.6558,1.651978 -6.243843,5.135284 -6.243843,9.287689c0,5.718811 4.769554,10.380463 10.692558,10.380371c0.41243,0 0.770386,-0.190338 1.170723,-0.234131c-0.002083,0.084045 -0.078049,0.149628 -0.078049,0.234131c0,0.770264 0.302917,1.462891 0.4683,2.185364c-3.29203,1.769836 -5.619453,5.003632 -5.619453,8.89743c0,5.718811 4.769516,10.380463 10.692574,10.380432c0.052643,0 0.103622,0.000702 0.156082,0c-0.171471,0.734894 -0.468269,1.400604 -0.468269,2.185303c0,4.668518 3.249687,8.540466 7.648689,9.834045c-0.061844,0.449799 -0.234154,0.860779 -0.234154,1.326843c0,5.718781 4.769547,10.302307 10.692581,10.302307c1.254745,0 2.392654,-0.241699 3.512161,-0.62439c-0.014862,0.222961 -0.156097,0.397858 -0.156097,0.62439c0,5.718811 4.769501,10.380432 10.692551,10.380371c2.898209,0 5.483139,-1.160828 7.414566,-2.96582c0.92868,0.51001 1.890961,0.868256 2.96582,1.092682c-0.122177,0.625305 -0.390244,1.213715 -0.390244,1.873138c0,5.718811 4.847595,10.38031 10.770615,10.380371c3.211075,0 5.993927,-1.42981 7.960892,-3.59021c1.752869,1.20343 3.774643,2.1073 6.087769,2.1073c1.089081,0 2.053162,-0.332703 3.043854,-0.624359c1.916,1.720947 4.515198,2.809723 7.336487,2.809723c1.119873,0 2.106812,-0.31665 3.121918,-0.62442c1.966858,2.157196 4.752594,3.59024 7.960892,3.59021c3.339539,0 6.148575,-1.590271 8.116989,-3.902374c1.843842,1.442535 4.07782,2.419495 6.634094,2.419495c0.110947,0 0.202042,-0.07486 0.31218,-0.078064c1.943359,2.656097 4.963394,4.526794 8.585281,4.526794c4.557083,0 8.435303,-2.762329 9.990143,-6.634094c1.790771,1.294006 3.914688,2.185364 6.321869,2.185364c2.517365,0 4.725204,-0.938293 6.55603,-2.341461c1.690918,3.578735 5.340271,6.087738 9.677948,6.087738c1.480774,0 2.93103,-0.334045 4.214569,-0.858521c1.609131,0.930389 3.452576,1.560974 5.463379,1.560974c1.847076,0 3.47699,-0.532166 4.995087,-1.326843c1.752869,1.203461 3.774628,2.107269 6.087708,2.10733c2.961548,0 5.62851,-1.168701 7.570679,-3.043884c1.814392,1.356323 4.007446,2.263397 6.477966,2.263397c4.092102,0 7.556183,-2.285889 9.365753,-5.541412c1.433197,0.685577 2.976013,1.092682 4.682892,1.092682c2.716003,0 5.133484,-1.04538 7.024292,-2.653656c1.429779,4.099945 5.263794,7.102448 9.990143,7.102386c4.092102,0 7.556152,-2.285889 9.365753,-5.541412c1.433167,0.685577 2.976044,1.092682 4.682892,1.092682c3.774353,0 6.984528,-1.991791 8.897461,-4.838989c0.906281,4.834686 5.113068,8.585266 10.380371,8.585266c5.637878,0 10.104034,-4.26297 10.536469,-9.599884c1.119995,0.383026 2.256805,0.702454 3.512177,0.702423c0.557922,0 1.025879,-0.232758 1.560974,-0.312195c1.92041,2.806244 5.077484,4.760895 8.819397,4.760956c5.098022,0 9.133301,-3.512634 10.224243,-8.117004c1.185486,0.435883 2.48111,0.702454 3.824402,0.702423c4.699982,0 8.617737,-2.960052 10.068146,-7.024323c2.626282,-0.479767 4.826141,-1.781006 6.399963,-3.746277c0.674957,0.128571 1.315399,0.390228 2.029236,0.390228c5.923065,0 10.692566,-4.661591 10.692566,-10.380371c0,-0.194244 -0.067108,-0.354706 -0.078064,-0.546326c0.887604,0.229736 1.769379,0.546326 2.731689,0.546326c5.923065,0 10.692566,-4.583588 10.692566,-10.302338c0,-2.416473 -0.981354,-4.559052 -2.419464,-6.321869c3.572174,-1.682373 6.087708,-5.116241 6.087708,-9.209656c0,-0.905579 -0.241852,-1.73822 -0.468262,-2.575592c0.551849,0.084625 1.062561,0.312164 1.638977,0.312164c5.923065,0 10.692566,-4.661591 10.692627,-10.380371c0,-3.017426 -1.377777,-5.598572 -3.512177,-7.492584c1.199097,-1.672333 2.029236,-3.58902 2.029236,-5.775543c0,-0.991943 -0.354401,-1.901245 -0.62439,-2.809723c4.588684,-1.175751 8.03894,-4.957245 8.03894,-9.756012c0,-2.919647 -1.263275,-5.530792 -3.278046,-7.414551c0.664429,-1.34726 1.092682,-2.858002 1.092682,-4.44873c0,-2.205719 -0.888855,-4.172913 -2.107269,-5.853577c0.312866,-0.971924 0.62439,-1.973022 0.62439,-3.043884c0,-3.38501 -1.845795,-6.226074 -4.448761,-8.117004c0,-1.234344 -0.291656,-2.414032 -0.702393,-3.512146c3.434326,-1.728149 5.853577,-5.057922 5.853577,-9.053558c0,-4.033218 -2.444489,-7.498428 -5.931641,-9.209671c0.846558,-1.481491 1.48291,-3.10643 1.48291,-4.917007c0,-3.190445 -1.551056,-5.90387 -3.902374,-7.804794c-0.481262,-3.96727 -3.167694,-7.210434 -6.946289,-8.507217c-0.378967,-1.562943 -1.009247,-3.01265 -2.029266,-4.214584c1.029846,-1.590332 1.795135,-3.294754 1.795135,-5.307266c0,-5.718811 -4.769562,-10.380386 -10.692627,-10.380386c-1.290192,0 -2.522003,0.298767 -3.668243,0.702438c-0.056335,-0.070084 -0.177551,-0.086197 -0.234131,-0.156097c1.188171,-1.66748 2.029266,-3.521942 2.029266,-5.69751c0,-5.478943 -4.489471,-9.857239 -10.068207,-10.224274c-0.953857,-4.394699 -4.643555,-7.701447 -9.365753,-8.116989c-0.313049,-5.448364 -4.815735,-9.834015 -10.536469,-9.834045c-2.961517,0 -5.628479,1.168686 -7.570648,3.043884c-1.299988,-0.540466 -2.788208,-0.780502 -4.292633,-0.780502c-0.69989,0 -1.288544,0.266541 -1.951202,0.390228c0.005737,-0.13887 0.078033,-0.249954 0.078033,-0.390228c0,-5.718781 -4.76947,-10.380371 -10.692535,-10.380371c-1.343323,0 -2.638916,0.266556 -3.824341,0.702423c-1.237579,-1.385895 -2.771759,-2.44313 -4.604858,-3.043854c-1.37912,-4.184326 -5.279388,-7.258484 -10.068176,-7.258469c-4.172119,0 -7.747162,2.337311 -9.521851,5.69751c-0.989655,-0.291031 -1.956055,-0.546326 -3.043884,-0.546326c-0.549866,0 -1.033234,0.235031 -1.560944,0.312164c-0.954742,-4.776566 -5.077728,-8.429138 -10.302307,-8.429169c-4.298889,0 -7.965973,2.482437 -9.677948,6.009689c-1.030823,-4.682144 -5.147186,-8.273056 -10.302338,-8.273071z"/>
  <path fill="#ffffff" fill-rule="evenodd" stroke-width="1.43353" stroke-linecap="round" stroke-linejoin="round" marker-start="none" marker-mid="none" marker-end="none" stroke-miterlimit="4" stroke-dashoffset="0" d="m314.41861,150.946533c-5.297791,0 -9.50943,3.787216 -10.380402,8.66333l-71.257782,-3.512161c-65.941498,0 -117.254349,59.645813 -121.286499,125.188919c-0.191399,-0.009827 -0.352394,-0.078064 -0.546326,-0.078064c-5.923058,0 -10.770622,4.661591 -10.770622,10.380371c0,3.893829 2.327454,7.127625 5.619453,8.897491c-0.16539,0.722443 -0.468285,1.41507 -0.468285,2.185303c0,0.633148 0.277435,1.193268 0.390244,1.795135c-3.6558,1.651978 -6.243843,5.135284 -6.243843,9.287689c0,5.718811 4.769554,10.380463 10.692558,10.380371c0.41243,0 0.770386,-0.190338 1.170723,-0.234131c-0.002083,0.084045 -0.078049,0.149628 -0.078049,0.234131c0,0.770264 0.302917,1.462891 0.4683,2.185364c-3.29203,1.769836 -5.619453,5.003632 -5.619453,8.89743c0,5.718811 4.769516,10.380463 10.692574,10.380432c0.052643,0 0.103622,0.000702 0.156082,0c-0.171471,0.734894 -0.468269,1.400604 -0.468269,2.185303c0,4.668518 3.249687,8.540466 7.648689,9.834045c-0.061844,0.449799 -0.234154,0.860779 -0.234154,1.326843c0,5.718781 4.769547,10.302307 10.692581,10.302307c1.254745,0 2.392654,-0.241699 3.512161,-0.62439c-0.014862,0.222961 -0.156097,0.397858 -0.156097,0.62439c0,5.718811 4.769501,10.380432 10.692551,10.380371c2.898209,0 5.483139,-1.160828 7.414566,-2.96582c0.92868,0.51001 1.890961,0.868256 2.96582,1.092682c-0.122177,0.625305 -0.390244,1.213715 -0.390244,1.873138c0,5.718811 4.847595,10.38031 10.770615,10.380371c3.211075,0 5.993927,-1.42981 7.960892,-3.59021c1.752869,1.20343 3.774643,2.1073 6.087769,2.1073c1.089081,0 2.053162,-0.332703 3.043854,-0.624359c1.916,1.720947 4.515198,2.809723 7.336487,2.809723c1.119873,0 2.106812,-0.31665 3.121918,-0.62442c1.966858,2.157196 4.752594,3.59024 7.960892,3.59021c3.339539,0 6.148575,-1.590271 8.116989,-3.902374c1.843842,1.442535 4.07782,2.419495 6.634094,2.419495c0.110947,0 0.202042,-0.07486 0.31218,-0.078064c1.943359,2.656097 4.963394,4.526794 8.585281,4.526794c4.557083,0 8.435303,-2.762329 9.990143,-6.634094c1.790771,1.294006 3.914688,2.185364 6.321869,2.185364c2.517365,0 4.725204,-0.938293 6.55603,-2.341461c1.690918,3.578735 5.340271,6.087738 9.677948,6.087738c1.480774,0 2.93103,-0.334045 4.214569,-0.858521c1.609131,0.930389 3.452576,1.560974 5.463379,1.560974c1.847076,0 3.47699,-0.532166 4.995087,-1.326843c1.752869,1.203461 3.774628,2.107269 6.087708,2.10733c2.961548,0 5.62851,-1.168701 7.570679,-3.043884c1.814392,1.356323 4.007446,2.263397 6.477966,2.263397c4.092102,0 7.556183,-2.285889 9.365753,-5.541412c1.433197,0.685577 2.976013,1.092682 4.682892,1.092682c2.716003,0 5.133484,-1.04538 7.024292,-2.653656c1.429779,4.099945 5.263794,7.102448 9.990143,7.102386c4.092102,0 7.556152,-2.285889 9.365753,-5.541412c1.433167,0.685577 2.976044,1.092682 4.682892,1.092682c3.774353,0 6.984528,-1.991791 8.897461,-4.838989c0.906281,4.834686 5.113068,8.585266 10.380371,8.585266c5.637878,0 10.104034,-4.26297 10.536469,-9.599884c1.119995,0.383026 2.256805,0.702454 3.512177,0.702423c0.557922,0 1.025879,-0.232758 1.560974,-0.312195c1.92041,2.806244 5.077484,4.760895 8.819397,4.760956c5.098022,0 9.133301,-3.512634 10.224243,-8.117004c1.185486,0.435883 2.48111,0.702454 3.824402,0.702423c4.699982,0 8.617737,-2.960052 10.068146,-7.024323c2.626282,-0.479767 4.826141,-1.781006 6.399963,-3.746277c0.674957,0.128571 1.315399,0.390228 2.029236,0.390228c5.923065,0 10.692566,-4.661591 10.692566,-10.380371c0,-0.194244 -0.067108,-0.354706 -0.078064,-0.546326c0.887604,0.229736 1.769379,0.546326 2.731689,0.546326c5.923065,0 10.692566,-4.583588 10.692566,-10.302338c0,-2.416473 -0.981354,-4.559052 -2.419464,-6.321869c3.572174,-1.682373 6.087708,-5.116241 6.087708,-9.209656c0,-0.905579 -0.241852,-1.73822 -0.468262,-2.575592c0.551849,0.084625 1.062561,0.312164 1.638977,0.312164c5.923065,0 10.692566,-4.661591 10.692627,-10.380371c0,-3.017426 -1.377777,-5.598572 -3.512177,-7.492584c1.199097,-1.672333 2.029236,-3.58902 2.029236,-5.775543c0,-0.991943 -0.354401,-1.901245 -0.62439,-2.809723c4.588684,-1.175751 8.03894,-4.957245 8.03894,-9.756012c0,-2.919647 -1.263275,-5.530792 -3.278046,-7.414551c0.664429,-1.34726 1.092682,-2.858002 1.092682,-4.44873c0,-2.205719 -0.888855,-4.172913 -2.107269,-5.853577c0.312866,-0.971924 0.62439,-1.973022 0.62439,-3.043884c0,-3.38501 -1.845795,-6.226074 -4.448761,-8.117004c0,-1.234344 -0.291656,-2.414032 -0.702393,-3.512146c3.434326,-1.728149 5.853577,-5.057922 5.853577,-9.053558c0,-4.033218 -2.444489,-7.498428 -5.931641,-9.209671c0.846558,-1.481491 1.48291,-3.10643 1.48291,-4.917007c0,-3.190445 -1.551056,-5.90387 -3.902374,-7.804794c-0.481262,-3.96727 -3.167694,-7.210434 -6.946289,-8.507217c-0.378967,-1.562943 -1.009247,-3.01265 -2.029266,-4.214584c1.029846,-1.590332 1.795135,-3.294754 1.795135,-5.307266c0,-5.718811 -4.769562,-10.380386 -10.692627,-10.380386c-1.290192,0 -2.522003,0.298767 -3.668243,0.702438c-0.056335,-0.070084 -0.177551,-0.086197 -0.234131,-0.156097c1.188171,-1.66748 2.029266,-3.521942 2.029266,-5.69751c0,-5.478943 -4.489471,-9.857239 -10.068207,-10.224274c-0.953857,-4.394699 -4.643555,-7.701447 -9.365753,-8.116989c-0.313049,-5.448364 -4.815735,-9.834015 -10.536469,-9.834045c-2.961517,0 -5.628479,1.168686 -7.570648,3.043884c-1.299988,-0.540466 -2.788208,-0.780502 -4.292633,-0.780502c-0.69989,0 -1.288544,0.266541 -1.951202,0.390228c0.005737,-0.13887 0.078033,-0.249954 0.078033,-0.390228c0,-5.718781 -4.76947,-10.380371 -10.692535,-10.380371c-1.343323,0 -2.638916,0.266556 -3.824341,0.702423c-1.237579,-1.385895 -2.771759,-2.44313 -4.604858,-3.043854c-1.37912,-4.184326 -5.279388,-7.258484 -10.068176,-7.258469c-4.172119,0 -7.747162,2.337311 -9.521851,5.69751c-0.989655,-0.291031 -1.956055,-0.546326 -3.043884,-0.546326c-0.549866,0 -1.033234,0.235031 -1.560944,0.312164c-0.954742,-4.776566 -5.077728,-8.429138 -10.302307,-8.429169c-4.298889,0 -7.965973,2.482437 -9.677948,6.009689c-1.030823,-4.682144 -5.147186,-8.273056 -10.302338,-8.273071z" id="rect2101"/>
  <path fill="#ffffff" fill-rule="evenodd" stroke-width="1.43353" stroke-linecap="round" stroke-linejoin="round" marker-start="none" marker-mid="none" marker-end="none" stroke-miterlimit="4" stroke-dashoffset="0" d="m310.753967,156.204132c-4.045959,2.416199 -5.412781,10.728897 -11.877838,7.889648c-26.398804,-0.860382 -52.836609,-3.867294 -79.243362,-2.485382c-39.893494,4.422974 -73.770157,33.191223 -91.236801,68.377029c-8.033989,16.493454 -12.624344,34.495071 -14.218727,52.742203c-2.88681,4.558167 -11.741089,3.455505 -11.386536,10.403961c2.019707,4.229462 7.129471,7.549316 5.144165,13.004913c-1.997261,4.031128 -8.419151,7.020233 -4.65287,12.19574c3.185089,3.71701 12.374176,2.656677 10.80854,9.536957c-1.802505,3.853363 -8.174515,6.955353 -0.751396,8.352051c4.16832,4.055084 8.621391,9.066803 15.168091,7.561279c5.105301,-2.073334 9.345825,0.993896 14.338654,1.339874c5.320404,-1.116486 10.238663,-2.529816 15.1073,0.780701c5.582443,1.932373 10.50766,-1.370758 14.977432,-3.901886c6.383865,1.247864 13.620834,6.248047 19.38649,0.624603c3.447296,-3.550629 7.837555,-8.451843 13.125824,-4.959595c5.792908,1.967316 9.99469,-4.481873 15.214676,-3.183472c4.725494,3.067902 6.142593,10.240143 12.805313,10.446533c6.504517,1.576385 12.280487,-2.932068 15.909241,-7.67923c6.204712,-1.517609 14.260101,3.514221 18.993652,-3.065918c2.80545,-4.707123 10.423981,-4.461945 10.405792,1.934052c4.43692,10.809052 23.159271,10.332489 25.541351,-1.59201c0.33313,-5.241455 5.403198,-7.17865 9.876831,-5.447601c7.764069,-0.525299 11.103943,9.499237 19.250549,7.518372c6.385315,-0.614471 10.656525,-5.876495 12.571167,-11.451477c5.224792,-3.466125 12.333313,1.613892 17.340179,-3.229645c4.052917,-3.535767 5.781342,-9.508087 11.638428,-10.306091c3.978851,-3.529602 8.792236,-5.380096 14.084656,-4.83255c6.950104,-1.141998 11.162598,-8.128723 11.241394,-14.678711c3.947815,-5.346313 11.786163,0.172546 16.260834,-4.804199c6.720642,-4.465393 6.658478,-14.256012 2.060364,-20.074524c0.411591,-6.775299 11.23233,-8.371643 9.18988,-16.281937c-0.75766,-4.605011 2.756317,-9.829346 7.860748,-7.918564c4.104126,-0.522598 11.425781,-3.981857 9.706055,-8.728195c-3.683594,-3.586304 -10.103607,-8.579819 -6.093567,-14.218277c1.226532,-6.160156 -5.919861,-9.422363 -10.924164,-7.716263c-7.186066,-2.628464 2.778809,-11.734879 -4.663574,-14.28978c-4.960327,-1.454025 -7.164917,-6.254929 -10.996216,-8.654739c-5.032379,-1.783813 -5.477264,-8.182465 -9.685364,-10.348099c-5.697449,-1.142471 -10.82428,5.282349 -16.371338,1.267792c-5.112946,-1.654007 -3.459137,-10.544922 -10.043121,-9.388641c-7.77774,1.341751 -11.826538,-6.158432 -17.108704,-9.970444c-6.423309,-1.45694 -9.905945,8.971588 -16.635529,4.794693c-4.066437,-2.299271 -5.170227,-9.522141 -11.195007,-7.800278c-3.249268,2.678253 -9.511505,8.482269 -12.105804,2.049622c-1.272797,-3.5383 -5.416016,-4.805206 -8.817688,-3.812515z" id="path2280"/>
  <path fill="#000000" fill-rule="evenodd" stroke-width="1.27546" stroke-linecap="round" stroke-linejoin="round" marker-start="none" marker-mid="none" marker-end="none" stroke-miterlimit="4" stroke-dashoffset="0" id="path2194" d="m142.68988,63.04253c-21.504211,5.330738 -40.527397,17.795521 -57.653473,31.412479c-18.611496,16.121201 -35.420776,37.022438 -39.107109,62.013039c-1.556717,12.241714 7.42543,25.845947 20.64502,25.257111c17.244308,0.558746 32.752449,-8.898987 47.353241,-16.935257c25.808281,-14.891449 52.257698,-33.394455 64.309135,-61.721085c4.346771,-11.812347 0.322357,-25.517235 -9.680801,-33.124901c-6.96051,-6.132126 -16.792847,-8.550636 -25.866013,-6.901386zm-43.325523,24.956638c34.488731,-22.458138 57.591133,-31.926208 73.930992,-6.833229c11.496445,17.654984 -9.845154,47.71962 -44.333893,70.17778c-34.488693,22.458115 -65.029175,36.769653 -76.525597,19.1147c-11.496418,-17.654953 12.439774,-60.001106 46.928497,-82.459251z"/>
  <path fill="#eed6b1" fill-rule="evenodd" stroke-width="5" stroke-linecap="round" stroke-linejoin="round" marker-start="none" marker-mid="none" marker-end="none" stroke-miterlimit="4" stroke-dashoffset="0" d="m196.905365,52.95602c-27.888062,2.324139 -54.570633,15.874416 -73.443115,36.448391c-42.76075,7.033035 -81.71376,41.160591 -87.83255,85.091499c-6.39945,39.126373 15.860752,79.101578 49.902863,98.108093c46.090668,27.408417 111.139069,18.693268 146.28421,-22.606552c17.024261,-19.068787 24.980652,-44.926163 23.677582,-70.273407c0.396469,-32.139313 13.932343,-50.007004 -2.647949,-96.514961c-7.141754,-20.032722 -27.764709,-30.388134 -47.213852,-30.462883c-2.910126,-0.079971 -5.82402,-0.004341 -8.727188,0.20982z" id="path1316"/>
  <path fill="url(#svg_2)" fill-rule="evenodd" stroke-width="1.350318" stroke-linecap="round" stroke-linejoin="round" marker-start="none" marker-mid="none" marker-end="none" stroke-miterlimit="4" stroke-dashoffset="0" id="path2340" d="m196.905365,53.95602c-27.888062,2.324139 -54.570633,15.874416 -73.443115,36.448391c-42.76075,7.033035 -81.71376,41.160591 -87.83255,85.091499c-6.39945,39.126373 15.860752,79.101578 49.902863,98.108093c46.090668,27.408417 111.139069,18.693268 146.28421,-22.606552c17.024261,-19.068787 24.980652,-44.926163 23.677582,-70.273407c0.396469,-32.139313 13.932343,-50.007004 -2.647949,-96.514961c-7.141754,-20.032722 -27.764709,-30.388134 -47.213852,-30.462883c-2.910126,-0.079971 -5.82402,-0.004341 -8.727188,0.20982z"/>
  <path fill="#ffffff" fill-rule="evenodd" stroke-width="1.350318" stroke-linecap="round" stroke-linejoin="round" marker-start="none" marker-mid="none" marker-end="none" stroke-miterlimit="4" stroke-dashoffset="0" d="m153.064301,66.470215c-4.26387,0.474289 -9.51387,2.693481 -14.62236,6.414726c-9.868484,7.188583 -15.711884,17.512299 -13.59626,23.617882c7.883232,-0.65361 17.586708,-4.520103 27.192497,-11.517357c3.95546,-2.881317 7.336761,-6.169952 10.517853,-9.476311c0.333099,-1.981956 0.183578,-3.749428 -0.513062,-5.248428c-1.39328,-2.997955 -4.714783,-4.264854 -8.978668,-3.790512z" id="path2109"/>
  <path fill="#ffffff" fill-rule="evenodd" stroke-width="0.5" stroke-linecap="round" stroke-linejoin="round" marker-start="none" marker-mid="none" marker-end="none" stroke-miterlimit="4" stroke-dashoffset="0" d="m175.779114,70.759598c-9.927032,-0.392242 -19.807312,9.048698 -21.74057,21.880043c-0.112198,2.910194 1.67514,5.161949 3.090561,7.138382c2.171295,2.630783 4.59758,5.254288 7.532715,6.222977c9.563004,0.904213 19.38736,2.15464 28.145248,7.62471c2.521744,-1.083641 1.71138,-5.22583 0.821548,-7.555016c-1.463654,-6.038918 -0.430191,-12.712799 1.93634,-18.124756c0.945175,-3.184753 -1.739487,-5.435699 -2.928192,-7.777718c-4.279144,-6.007187 -10.561142,-9.498108 -16.857651,-9.408623z" id="path2117"/>
  <path fill="#000000" fill-rule="evenodd" stroke-width="1.350318" stroke-linecap="round" stroke-linejoin="round" marker-start="none" marker-mid="none" marker-end="none" stroke-miterlimit="4" stroke-dashoffset="0" id="path2177" d="m196.87709,49.257309c-28.463684,2.5802 -55.592911,16.015274 -75.226288,36.731705c-44.72863,7.742699 -84.937553,44.779648 -90.051912,90.889999c-5.739071,44.828278 24.160978,89.451523 65.568773,105.59053c48.502975,20.988678 111.351013,6.747223 142.671692,-36.817429c15.337524,-19.993362 20.284607,-45.845505 19.673492,-70.556763c1.712799,-24.339249 9.099487,-49.075905 2.26178,-73.334511c-3.124573,-18.080269 -11.047699,-37.33065 -28.537354,-45.737923c-11.086304,-6.115547 -23.90416,-7.483097 -36.360184,-6.765617l0,0.000008zm0.028275,3.698711c-27.888062,2.324139 -54.570633,15.874416 -73.443115,36.448391c-42.76075,7.033035 -81.71376,41.160591 -87.83255,85.091499c-6.39945,39.126373 15.860752,79.101578 49.902863,98.108093c46.090668,27.408417 111.139069,18.693268 146.28421,-22.606552c17.024261,-19.068787 24.980652,-44.926163 23.677582,-70.273407c0.396469,-32.139313 13.932343,-50.007004 -2.647949,-96.514961c-7.141754,-20.032722 -27.764709,-30.388134 -47.213852,-30.462883c-2.910126,-0.079971 -5.82402,-0.004341 -8.727188,0.20982z"/>
  <path fill="#ffffff" fill-rule="evenodd" stroke-width="1.43353" stroke-linecap="round" stroke-linejoin="round" marker-start="none" marker-mid="none" marker-end="none" stroke-miterlimit="4" stroke-dashoffset="0" d="m197.139999,16.900999c-7.141998,-1.685999 -10.425995,8.128801 -16.483994,5.763201c-9.237,-1.3871 -19.285004,7.8913 -15.751007,17.323502c-0.462006,1.823097 -9.003006,-0.857201 -11.899994,2.744099c-8.047012,4.2686 -8.837997,16.767899 -1.153,21.806103c6.358994,6.070297 16.069992,1.350998 21.463989,-0.198204c6.437012,7.071999 15.650009,-1.162899 21.45401,4.935898c5.901001,3.659805 12.690994,-2.942596 15.990997,4.308601c4.496002,3.682701 10.750992,2.077003 11.819992,8.876701c2.658005,5.224701 11.009003,5.505798 14.05101,6.322197c-0.152008,9.064705 10.213989,15.878906 18.574997,12.955902c2.328003,8.165001 12.346985,12.157005 19.980011,9.054001c-0.76001,11.541 14.415985,18.052002 23.373993,11.865997c9.408997,-4.050995 6.171997,-17.320999 3.014984,-21.450996c7.947998,-2.436897 12.302002,-12.963898 6.847015,-19.764099c-3.326996,-6.640602 -13.643005,-3.138 -12.705017,-11.548798c-1.405975,-5.566902 -9.192993,-7.123104 -11.730988,-9.321404c3.147003,-9.926899 -8.894989,-19.130699 -18.087006,-15.731499c-2.173981,-7.366001 -10.931992,-11.854301 -18.184998,-9.365803c-0.483002,-10.371798 -13.513,-16.032198 -22.087997,-11.082798c-4.138992,-6.3234 -13.231003,-8.4699 -19.746002,-4.604801c-2.569992,-1.743099 -5.604996,-2.908199 -8.740997,-2.8878z" id="path2055"/>
  <path fill="#000000" fill-rule="evenodd" stroke-width="1.43353" stroke-linecap="round" stroke-linejoin="round" marker-start="none" marker-mid="none" marker-end="none" stroke-miterlimit="4" stroke-dashoffset="0" id="path2143" d="m193.380203,13.277c-5.454987,1.542809 -9.47081,7.41857 -15.6026,5.74246c-9.086411,0.227329 -17.775467,8.569408 -17.054214,17.868708c-13.356094,-1.018829 -23.26973,16.320221 -14.656403,27.024113c5.504486,7.950832 16.928314,9.056332 25.031448,4.794621c5.970276,2.581169 12.325409,2.191208 18.647797,2.304222c4.435104,2.329613 9.260422,3.905388 14.41362,2.811043c4.316833,0.845032 7.052048,5.414406 11.813171,6.341911c4.386826,2.804115 5.29689,9.137856 11.220001,10.188805c6.786194,-0.598564 6.630508,5.422478 10.153931,9.46347c3.893845,4.298401 9.9245,6.873718 15.740326,6.055748c3.399109,6.810028 11.615387,10.492706 19.016113,9.421349c3.536499,15.915306 29.702026,18.108452 35.241241,2.518562c1.886383,-4.778893 1.144958,-10.351784 -0.994934,-14.945488c11.859497,-6.174835 10.01825,-26.946106 -3.711395,-29.515144c-5.175018,-2.268188 -3.318024,-10.123558 -9.473816,-11.758171c-5.676971,-1.367878 -5.049072,-6.434078 -6.640076,-10.833107c-3.348053,-6.64373 -10.982788,-11.094612 -18.43811,-10.028252c-3.337189,-6.199589 -10.632507,-10.06601 -17.628906,-9.479149c-2.820297,-9.50172 -14.65213,-14.644201 -23.726761,-11.18424c-5.063797,-5.46988 -13.848953,-7.35387 -20.692291,-4.363871c-3.787689,-2.247129 -8.380707,-2.56178 -12.658142,-2.427589zm3.759308,3.623989c-7.141846,-1.686029 -10.425629,8.128771 -16.483246,5.763231c-9.237473,-1.387112 -19.285339,7.891289 -15.751312,17.323481c-0.462372,1.823067 -9.002899,-0.857162 -11.900009,2.744148c-8.046707,4.26852 -8.838364,16.767879 -1.153061,21.806038c6.359131,6.07032 16.070297,1.351013 21.464096,-0.198151c6.437088,7.072006 15.649918,-1.162937 21.453827,4.935822c5.900848,3.659828 12.691681,-2.94252 15.991013,4.30867c4.496292,3.682709 10.750687,2.07695 11.819855,8.876648c2.657837,5.224686 11.00885,5.505783 14.051086,6.322273c-0.15152,9.064682 10.213867,15.878838 18.575424,12.955963c2.327454,8.16507 12.347168,12.156517 19.980255,9.053566c-0.760498,11.54097 14.41571,18.052292 23.37384,11.86628c9.408234,-4.050896 6.171539,-17.320671 3.014954,-21.450645c7.947449,-2.437225 12.301758,-12.96418 6.846863,-19.764442c-3.327454,-6.640541 -13.643433,-3.138008 -12.704956,-11.548798c-1.406494,-5.56691 -9.193634,-7.123043 -11.730957,-9.321423c3.146759,-9.92688 -8.895508,-19.13063 -18.087433,-15.731499c-2.173462,-7.365952 -10.93219,-11.85424 -18.185181,-9.365753c-0.482635,-10.371798 -13.512421,-16.032238 -22.087555,-11.082808c-4.139359,-6.32336 -13.231445,-8.469911 -19.746124,-4.604832c-2.570251,-1.74301 -5.60463,-2.908199 -8.741379,-2.88777z"/>
  <path fill="#ffffff" fill-rule="evenodd" stroke-width="1.43353" stroke-linecap="round" stroke-linejoin="round" marker-start="none" marker-mid="none" marker-end="none" stroke-miterlimit="4" stroke-dashoffset="0" d="m314.528625,194.524261c0,43.571808 -4.946564,69.537476 -36.648132,69.537476c-22.304626,0 -36.648117,-36.302322 -36.648117,-79.874115c0,-43.571793 4.946564,-78.934425 27.251175,-78.934425c22.304596,0 46.045074,45.699287 46.045074,89.271065z" id="path2048"/>
  <path fill="#000000" fill-rule="evenodd" stroke-width="1.43353" stroke-linecap="round" stroke-linejoin="round" marker-start="none" marker-mid="none" marker-end="none" stroke-miterlimit="4" stroke-dashoffset="0" id="path2350" d="m147.893021,86.199295a5.761139,5.09373 0 1 1 -11.522339,-12.698639a5.761139,5.09373 0 1 1 11.522339,12.698639z"/>
  <path fill="#000000" fill-rule="evenodd" stroke-width="1.43353" stroke-linecap="round" stroke-linejoin="round" marker-start="none" marker-mid="none" marker-end="none" stroke-miterlimit="4" stroke-dashoffset="0" d="m178.616165,96.768974a5.649747,5.783387 0 1 1 -11.299515,-14.417976a5.649747,5.783387 0 1 1 11.299515,14.417976z" id="path2360"/>
  <path fill="#000000" fill-rule="evenodd" stroke-width="25.43353" stroke-linecap="round" stroke-linejoin="round" marker-start="none" marker-mid="none" marker-end="none" stroke-miterlimit="4" stroke-dashoffset="0" id="path2160" d="m265.138519,101.970619c-15.810135,3.912384 -20.906189,21.469124 -23.408875,35.575706c-4.325851,33.83873 -5.758911,69.435318 6.143341,101.970978c5.236572,14.179321 16.964264,29.243835 33.644562,28.187103c15.624146,-0.037506 30.156677,-11.54361 33.039063,-27.053574c5.425934,-19.828995 5.150726,-40.81987 3.654419,-61.16127c-3.300568,-25.642166 -12.08429,-52.168205 -31.137543,-70.438484c-6.145172,-4.957932 -13.846008,-8.71907 -21.934967,-7.08046zm50.390106,92.553642c0,43.571808 -4.946564,69.537476 -36.648132,69.537476c-22.304626,0 -36.648117,-36.302322 -36.648117,-79.874115c0,-43.571793 4.946564,-78.934425 27.251175,-78.934425c22.304596,0 46.045074,45.699287 46.045074,89.271065z"/>
  <path fill="#000000" fill-rule="evenodd" stroke-width="1px" d="m74.929176,162.329773c2.058456,2.862167 2.324745,6.495834 3.307411,9.784317c0.708565,2.786407 1.980286,5.413422 3.712784,7.705765c1.758652,2.641541 3.225197,5.802597 2.612206,9.052628c-0.380104,2.531952 -1.564743,5.126495 -3.724945,6.59697c-1.867683,0.589859 -3.18148,-1.326736 -3.932442,-2.747681c-1.652,-3.009674 -1.236679,-6.539352 -1.611137,-9.831345c-0.254623,-3.230515 -0.357101,-6.474289 -0.51693,-9.706924c-0.495216,-2.996719 -1.91069,-6.073883 -0.885941,-9.11824c0.13765,-0.642548 0.185074,-1.659561 1.038994,-1.735489z" id="path2127"/>
  <path fill="#000000" fill-rule="evenodd" stroke-width="1px" d="m83.947594,208.9505c0.312225,7.370285 -1.002533,14.930862 1.190315,22.124207c1.624161,6.280441 3.450394,12.564606 4.056,19.044891c0.350899,0.908676 -0.655426,2.693634 -1.305237,1.171341c-2.03405,-7.070801 -4.429451,-14.101624 -5.362419,-21.428665c-0.511101,-5.463531 0.579605,-11.058304 -0.14209,-16.421036c-0.262901,-1.953476 1.345978,-3.762146 1.515297,-5.126251l0.01091,0.343124l0.037224,0.292389l0,0z" id="path2129"/>
  <path fill="#000000" fill-rule="evenodd" stroke-width="1px" d="m123.54425,174.628998c-4.694969,0.914047 -8.370483,4.20871 -12.602242,6.204697c-2.773247,1.399811 -5.800896,2.159943 -8.832275,2.751236c-3.545631,0.881622 -7.284073,2.410324 -9.284012,5.656921c-1.365753,2.017822 -2.193092,4.611862 -1.463692,7.019272c1.183037,1.576035 3.433289,1.222458 5.091759,0.777359c3.609459,-0.842545 6.323685,-3.499786 9.03933,-5.840469c3.284569,-2.597748 6.367531,-5.439697 9.556709,-8.14827c2.726814,-1.876419 6.132195,-3.102295 7.893562,-6.083298c0.307869,-0.701187 1.419991,-1.57753 0.600861,-2.337448z" id="path2131"/>
 </g>
</svg>